<?xml version="1.0" standalone="no"?>
<!DOCTYPE svg PUBLIC "-//W3C//DTD SVG 20010904//EN"
 "http://www.w3.org/TR/2001/REC-SVG-20010904/DTD/svg10.dtd">
<svg version="1.0" xmlns="http://www.w3.org/2000/svg"
 width="512.000000pt" height="512.000000pt" viewBox="0 0 512.000000 512.000000"
 preserveAspectRatio="xMidYMid meet">

<g transform="translate(0.000000,512.000000) scale(0.100000,-0.100000)"
fill="#000000" stroke="none">
<path d="M2462 4676 c-144 -47 -232 -177 -232 -343 l0 -63 -458 0 c-499 0
-522 -2 -626 -58 -67 -36 -148 -116 -180 -180 -46 -90 -56 -152 -56 -332 0
-152 2 -169 24 -215 25 -54 81 -110 130 -130 l31 -13 198 -1303 c165 -1093
201 -1311 221 -1356 52 -112 173 -206 307 -238 95 -22 1383 -22 1478 0 134 32
255 126 307 238 20 45 56 263 221 1356 l198 1303 31 13 c49 20 105 76 130 130
22 46 24 63 24 215 0 180 -10 242 -56 332 -32 64 -113 144 -180 180 -104 56
-127 58 -626 58 l-458 0 0 63 c0 151 -75 275 -199 330 -58 26 -170 32 -229 13z
m183 -175 c54 -31 75 -75 75 -157 l0 -74 -160 0 -160 0 0 70 c0 101 28 147
107 176 44 16 94 10 138 -15z m1205 -411 c81 -31 153 -101 174 -168 l7 -22
-1470 0 c-1111 0 -1471 3 -1471 12 0 6 14 33 31 60 45 70 121 117 209 131 14
2 579 3 1255 2 1012 -1 1236 -3 1265 -15z m198 -451 c-3 -85 -5 -92 -31 -115
l-28 -24 -1429 0 -1429 0 -28 24 c-26 23 -28 30 -31 115 l-4 91 1492 0 1492 0
-4 -91z m-195 -331 c-2 -13 -89 -586 -193 -1275 -145 -961 -194 -1261 -209
-1292 -26 -49 -85 -100 -147 -126 -47 -19 -76 -20 -707 -23 -687 -3 -732 -1
-814 40 -49 25 -108 85 -124 126 -6 15 -95 590 -199 1277 -104 688 -191 1260
-193 1273 l-4 22 1297 0 1297 0 -4 -22z"/>
<path d="M1743 3046 c-23 -20 -27 -30 -25 -71 6 -151 184 -2067 194 -2100 23
-70 96 -83 140 -24 19 25 17 44 -77 1080 -52 579 -97 1064 -100 1076 -8 33
-45 63 -76 63 -15 0 -40 -11 -56 -24z"/>
<path d="M2265 3045 c-18 -17 -25 -35 -25 -64 0 -70 59 -2014 63 -2069 3 -38
10 -60 25 -75 29 -29 85 -28 115 1 26 27 27 -105 -8 1107 -31 1090 -30 1071
-61 1102 -31 31 -77 30 -109 -2z"/>
<path d="M2793 3046 c-25 -21 -28 -31 -30 -97 -2 -41 -17 -524 -33 -1073 -28
-911 -29 -1001 -15 -1023 33 -50 110 -50 137 1 17 31 81 2142 66 2170 -27 51
-80 60 -125 22z"/>
<path d="M3316 3047 c-28 -28 -14 93 -127 -1149 -92 -1020 -93 -1027 -73
-1049 39 -44 104 -43 132 1 11 18 202 2040 202 2141 0 70 -85 105 -134 56z"/>
</g>
</svg>
