<svg xmlns="http://www.w3.org/2000/svg" width="610" height="861" viewBox="0 0 610 861" version="1.1"><path d="M 174.038 11.043 C 171.035 12.119, 167.772 13, 166.788 13 C 165.805 13, 165 13.450, 165 14 C 165 14.550, 164.571 15, 164.046 15 C 163.521 15, 159.181 17.250, 154.402 20 C 149.623 22.750, 144.711 25, 143.486 25 C 141.264 25, 128.330 27.174, 107.500 31.049 C 101.450 32.175, 91.755 33.884, 85.956 34.847 C 67.793 37.863, 56.372 45.295, 49.202 58.765 C 42.590 71.185, 43.033 47.785, 43.016 385.590 C 43 689.710, 43.019 692.756, 45.006 700.590 C 48.072 712.680, 52.183 720.114, 60.343 728.321 C 70.158 738.194, 83.657 744.915, 93.932 745.045 C 95.894 745.070, 98.841 745.662, 100.479 746.361 L 103.458 747.631 98.625 750.045 C 91.808 753.449, 83.407 761.868, 80.517 768.191 C 77.548 774.685, 75.571 786.707, 76.420 793.106 C 76.766 795.716, 76.643 798.103, 76.146 798.410 C 75.650 798.717, 65.357 800.528, 53.273 802.435 C 31.076 805.937, 20.158 808.243, 14.287 810.669 C 10.426 812.264, 4 817.728, 4 819.417 C 4 821.669, 13.116 828.663, 17.250 829.583 C 17.663 829.675, 18.113 829.838, 18.250 829.946 C 18.387 830.054, 20.253 830.355, 22.396 830.614 C 24.539 830.874, 27.149 831.544, 28.195 832.105 C 29.242 832.665, 31.989 833.339, 34.299 833.603 C 36.610 833.866, 39.175 834.281, 40 834.524 C 40.825 834.767, 43.525 835.211, 46 835.511 C 48.475 835.811, 54.714 836.728, 59.866 837.549 C 87.626 841.971, 109.703 843.635, 173 846.077 C 202.551 847.216, 410.412 846.942, 455.500 845.704 C 474.699 845.177, 501.337 843.582, 510 842.441 C 511.925 842.187, 517.325 841.534, 522 840.989 C 538.057 839.118, 548.991 837.514, 560.500 835.342 C 562.150 835.031, 564.477 834.645, 565.672 834.485 C 570.066 833.895, 574.527 832.747, 575.525 831.949 C 576.089 831.498, 577.664 830.946, 579.025 830.723 C 585.046 829.735, 594.116 824.197, 595.313 820.777 C 596.052 818.667, 591.959 813.547, 587.823 811.408 C 581.141 807.953, 558.162 803.419, 532.500 800.493 C 524.800 799.615, 518.208 798.583, 517.851 798.198 C 517.494 797.814, 517.031 792.965, 516.822 787.421 C 516.487 778.516, 516.071 776.595, 513.249 770.921 C 509.167 762.714, 503.517 756.202, 496.353 751.446 L 490.682 747.682 495.591 746.423 C 503.436 744.411, 511.224 741.244, 516.410 737.955 C 528.163 730.501, 538.793 717.341, 543.074 704.941 L 545.298 698.500 545.384 537.500 C 545.466 382.372, 545.400 376.269, 543.579 370.164 C 541.328 362.620, 535.630 353.468, 529.691 347.856 L 525.390 343.792 531.724 337.710 C 538.868 330.850, 543.416 322.691, 545.035 313.835 C 545.723 310.070, 545.973 266.637, 545.779 184.335 L 545.489 60.500 543.271 54 C 536.301 33.575, 519.596 17.513, 498.656 11.102 C 491.830 9.012, 491.390 9.007, 335.656 9.046 C 183.212 9.084, 179.370 9.132, 174.038 11.043 M 187 30.958 C 169.882 32.776, 153.209 43.437, 147.056 56.500 C 141.142 69.056, 141.537 60.276, 141.228 185.967 C 140.982 285.656, 141.149 302.428, 142.448 308.711 C 144.270 317.519, 146.872 322.873, 151.033 326.374 C 154.485 329.279, 156.737 329.644, 159.362 327.725 C 160.990 326.534, 160.887 325.989, 157.803 319.475 L 154.500 312.500 154.233 192 C 153.974 74.457, 154.015 71.340, 155.943 64.979 C 158.009 58.158, 163.938 48.722, 167.703 46.259 L 169.906 44.818 167.830 49.116 C 164.651 55.695, 164.092 67.708, 164.044 130.364 L 164 187.227 168.750 182.174 C 182.676 167.357, 200.797 170.662, 213.742 190.381 C 217.529 196.149, 223.138 210.291, 226.086 221.500 C 228.786 231.769, 229.790 255.159, 228.044 267.133 C 224.324 292.653, 210.280 318.686, 198.500 321.898 C 182.368 326.297, 166.449 315.070, 165.869 298.886 C 165.632 292.258, 166.738 288.646, 172.701 276.563 L 178.161 265.500 177.772 251.500 C 177.343 236.074, 176.095 231.632, 168.193 217.414 L 164.500 210.769 164.240 257.126 C 163.992 301.310, 164.074 303.763, 165.991 309.440 C 168.599 317.161, 172.316 322.433, 177.825 326.224 C 186.694 332.325, 177.096 332.001, 348.409 331.991 L 505.500 331.981 510.629 329.040 C 513.708 327.273, 517.305 323.991, 519.629 320.825 L 523.500 315.551 523.813 192.026 C 524.042 101.665, 523.814 66.680, 522.967 61.720 C 520.821 49.168, 510.654 38.124, 496.216 32.662 L 490.500 30.500 342 30.384 C 260.325 30.320, 190.575 30.579, 187 30.958 M 127.875 48.458 C 127.623 48.710, 118.886 50.309, 108.459 52.011 C 98.031 53.714, 86.697 55.805, 83.271 56.659 C 74.984 58.723, 68.857 64.006, 66.324 71.270 C 64.574 76.288, 64.500 89.037, 64.500 385.500 L 64.500 694.500 66.804 700.202 C 69.644 707.231, 76.641 715.179, 83.403 719.058 C 91.878 723.919, 95.200 722.443, 92.239 715.133 C 91.489 713.282, 91.087 711.216, 91.345 710.544 C 91.603 709.871, 90.497 708.544, 88.888 707.593 C 85.351 705.503, 78.446 696.579, 76.871 692.060 C 75.953 689.427, 76.001 688.613, 77.115 687.908 C 77.877 687.425, 86.487 687.024, 96.250 687.015 L 114 687 114.033 537.750 C 114.051 455.663, 114.465 385.395, 114.954 381.601 C 116.318 371.016, 121.386 361.730, 131.027 352.154 L 138.964 344.270 133.541 339.943 C 126.869 334.619, 122.029 328.373, 118.474 320.500 C 116.087 315.214, 115.656 312.603, 114.847 298.557 C 114.343 289.788, 114.066 236.238, 114.233 179.557 C 114.512 84.375, 114.670 76.102, 116.292 71.297 C 118.362 65.170, 122.393 60, 125.102 60 C 126.477 60, 127.734 58.397, 129.513 54.376 C 130.881 51.282, 132 48.582, 132 48.376 C 132 47.838, 128.423 47.910, 127.875 48.458 M 249.270 119.054 C 237.834 121.311, 227.235 129.688, 222.417 140.278 C 219.951 145.697, 219.582 147.735, 219.554 156.074 C 219.524 165.008, 219.748 166.093, 222.913 172.330 C 230.480 187.237, 246.062 195.754, 260.788 193.031 C 284.036 188.734, 297.797 167.554, 291.391 145.932 C 287.206 131.804, 276.763 122.214, 262.201 119.124 C 256.286 117.869, 255.300 117.864, 249.270 119.054 M 438.962 118.873 C 429.176 120.929, 417.789 129.644, 413.538 138.332 C 403.988 157.851, 411.419 181.128, 430 189.903 C 434.779 192.159, 436.812 192.500, 445.500 192.500 C 454.397 192.500, 456.120 192.195, 461.126 189.736 C 468.068 186.325, 475.273 178.785, 478.820 171.218 C 481.167 166.211, 481.500 164.257, 481.500 155.500 C 481.500 143.646, 479.776 139.199, 471.798 130.469 C 463.498 121.388, 449.882 116.579, 438.962 118.873 M 249.256 133.588 C 242.567 137.002, 240.064 145.473, 244.079 151.111 C 250.284 159.826, 264.715 158.443, 269.343 148.690 C 274.127 138.607, 260.093 128.056, 249.256 133.588 M 438.304 133.956 C 431.906 137.857, 429.663 144.478, 432.952 149.759 C 439.029 159.518, 452.443 159.255, 458.279 149.262 C 464.229 139.075, 449.021 127.421, 438.304 133.956 M 192.500 191.208 C 187.326 194.175, 186.721 198.974, 190.526 206.862 C 196.751 219.766, 201 237.956, 201 251.703 C 201 262.016, 197.952 277.597, 193.856 288.217 C 192.186 292.547, 191.072 296.744, 191.379 297.545 C 192.345 300.064, 195.953 299.249, 197.112 296.250 C 199.592 289.834, 205.231 270.974, 206.583 264.575 C 208.854 253.827, 210.872 252.640, 212.399 261.153 C 212.759 263.163, 213.688 265.050, 214.462 265.347 C 217.594 266.549, 218.500 239.946, 215.723 228.322 C 212.177 213.477, 206.302 199.692, 200.898 193.537 C 197.636 189.821, 195.804 189.313, 192.500 191.208 M 301.255 204.119 C 294.549 206.053, 292.339 215.492, 297 222.295 C 300.525 227.440, 315.876 237.302, 325.266 240.454 C 344.422 246.883, 364.927 245.565, 382.500 236.774 C 390.685 232.679, 402.517 224.087, 404.429 220.850 C 408.177 214.505, 405.330 206.254, 398.628 204.042 C 394.360 202.634, 391.176 203.795, 385.424 208.858 C 375.586 217.518, 363.128 222, 348.895 222 C 334.840 222, 324.922 218.062, 314 208.143 C 311.525 205.896, 308.974 204.044, 308.332 204.028 C 307.689 204.013, 306.564 203.816, 305.832 203.591 C 305.099 203.366, 303.040 203.604, 301.255 204.119 M 190.718 355.082 C 181.144 357.360, 173.252 363.712, 168.828 372.697 C 165 380.473, 165.193 377.372, 164.704 438.849 C 164.348 483.492, 163.901 481.252, 170.735 469.106 C 176.637 458.618, 177.222 455.996, 177.067 440.738 C 176.918 426.045, 176.142 422.365, 169.112 403 C 164.340 389.854, 165.206 384.072, 173.251 375.343 C 181.202 366.718, 191.248 363.450, 200.067 366.621 C 212.776 371.191, 224.666 393.309, 228.990 420.425 C 230.437 429.497, 230.122 450.177, 228.366 461.500 C 224.190 488.411, 210.913 512.883, 196.500 520.234 C 187.804 524.668, 177.156 522.324, 169.305 514.246 L 164.947 509.762 165.224 597.631 L 165.500 685.500 167.740 691.032 C 170.643 698.200, 176.677 704.032, 185.500 708.196 L 192.500 711.500 341.500 711.500 L 490.500 711.500 497.125 709.210 C 500.769 707.950, 506.306 705.381, 509.430 703.500 C 514.702 700.325, 515.060 700.238, 514.426 702.290 C 512.097 709.827, 507.659 715.544, 501.750 718.620 C 500.238 719.407, 499 720.490, 499 721.026 C 499 722.380, 499.371 722.293, 504.219 719.793 C 509.917 716.856, 518.164 708.338, 521.116 702.343 L 523.500 697.500 524 542.500 C 524.275 457.250, 524.179 384.676, 523.786 381.225 C 522.447 369.463, 517.182 361.895, 507 357.093 L 501.500 354.500 348 354.341 C 259.869 354.250, 192.889 354.565, 190.718 355.082 M 150.899 360.101 C 146.138 364.862, 143.619 370.092, 142.037 378.500 C 141.221 382.836, 140.990 426.656, 141.204 536.500 L 141.500 688.500 143.929 695.500 C 146.011 701.500, 147.383 703.507, 153.536 709.551 C 161.945 717.811, 171.889 723.445, 181.743 725.533 C 187.440 726.741, 212.021 726.958, 338.500 726.919 C 443.576 726.887, 487.751 726.561, 486 725.830 C 484.381 725.155, 475.305 724.970, 460.250 725.306 C 445.932 725.625, 437 725.461, 437 724.878 C 437 724.286, 405.291 724.153, 352.250 724.523 C 275.393 725.058, 201.557 724.131, 193.500 722.528 C 186.092 721.055, 180.055 718.814, 174.500 715.473 C 167.092 711.019, 163.840 707.968, 159.444 701.347 C 152.721 691.222, 153.031 699.261, 153.015 534.934 C 153.005 432.289, 153.336 384.533, 154.086 380.434 C 155.084 374.980, 157.573 368.852, 161.048 363.292 C 162.285 361.314, 162.180 360.821, 160.040 358.542 C 158.726 357.144, 157.055 356, 156.326 356 C 155.597 356, 153.155 357.845, 150.899 360.101 M 193.747 383.984 C 189.430 387.380, 189.510 390.017, 194.368 404.351 C 200.166 421.460, 201.382 429.519, 200.759 446.703 C 200.202 462.078, 197.944 472.157, 192.738 482.500 C 187.478 492.949, 187.410 497, 192.492 497 C 194.694 497, 195.289 495.769, 199.943 481.578 C 202.724 473.096, 205 465.607, 205 464.936 C 205 464.265, 205.919 460.630, 207.042 456.858 C 209.400 448.943, 212 447.401, 212 453.918 C 212 458.664, 212.803 461, 214.433 461 C 215.863 461, 219.040 444.067, 219.016 436.578 C 218.982 426.135, 212.918 401.640, 207.961 391.923 C 205.030 386.178, 201.066 382, 198.546 382 C 197.294 382, 195.135 382.893, 193.747 383.984 M 492.732 723 C 490.871 725.174, 491.976 725.618, 495.094 723.950 C 496.173 723.372, 496.792 722.472, 496.469 721.950 C 495.585 720.520, 494.624 720.790, 492.732 723 M 177.500 751.683 C 191.214 762.628, 198 775.265, 198 789.859 L 198 795.297 209.750 794.680 C 238.703 793.158, 328.774 792.244, 332.054 793.439 C 332.849 793.728, 339.125 793.636, 346 793.233 C 352.875 792.830, 361.650 792.866, 365.500 793.312 C 369.350 793.759, 374.413 793.927, 376.750 793.685 C 379.087 793.443, 381 793.640, 381 794.123 C 381 794.605, 384.150 795, 388 795 L 395 795 395 788.089 C 395 774.067, 401.783 760.682, 412.351 753.852 C 415.628 751.733, 418.128 749.985, 417.905 749.967 C 417.682 749.949, 363.681 749.749, 297.903 749.524 C 232.124 749.299, 176.999 748.795, 175.403 748.404 C 172.828 747.773, 173.066 748.144, 177.500 751.683 M 113 765.481 C 113 766.295, 115.066 768.012, 117.592 769.295 L 122.183 771.629 119.578 774.725 C 115.184 779.947, 114 784.133, 114 794.452 L 114 803.969 142.250 804.234 L 170.500 804.500 170.500 809.500 L 170.500 814.500 148.426 814.769 L 126.352 815.037 126.789 818.019 L 127.227 821 153.613 821 L 180 821 180 802.361 C 180 783.745, 179.996 783.715, 177.217 779.111 C 175.687 776.575, 173.573 772.543, 172.521 770.150 C 171.386 767.573, 169.641 765.434, 168.238 764.900 C 166.936 764.405, 153.974 764, 139.435 764 C 116.756 764, 113 764.210, 113 765.481 M 432 764.916 C 432 765.667, 434.517 767.754, 438.767 770.527 C 438.914 770.622, 437.452 773.329, 435.517 776.542 C 432.072 782.262, 432 782.604, 432 793.176 L 432 803.969 460.250 804.234 L 488.500 804.500 488.802 809.750 L 489.105 815 466.159 815 C 446.686 815, 443.127 815.227, 442.638 816.500 C 442.322 817.325, 442.322 818.675, 442.638 819.500 C 443.131 820.784, 447.236 821, 471.107 821 L 499 821 499 803.750 L 499 786.500 494.928 778 C 492.688 773.325, 490.309 768.375, 489.640 767 L 488.424 764.500 460.212 764.234 C 442.926 764.072, 432 764.336, 432 764.916" stroke="none" fill="#164367" fill-rule="evenodd"/><path d="M 183.750 7.728 C 181.688 7.944, 180 8.431, 180 8.810 C 180 9.190, 249.975 9.500, 335.500 9.500 C 421.025 9.500, 491 9.224, 491 8.886 C 491 8.548, 488.912 7.986, 486.360 7.636 C 481.467 6.965, 190.195 7.054, 183.750 7.728 M 499.524 11.278 C 517.193 17.225, 529.649 27.558, 539.096 44.105 C 540.790 47.072, 541.890 48.600, 541.540 47.500 C 539.892 42.326, 533.793 33.824, 526.664 26.763 C 520.516 20.674, 516.853 18.024, 509.664 14.467 C 504.624 11.972, 498.700 9.703, 496.500 9.423 C 493.379 9.025, 494.044 9.433, 499.524 11.278 M 169.500 11.464 C 167.850 12.219, 167.175 12.854, 168 12.874 C 168.825 12.894, 170.850 12.292, 172.500 11.536 C 174.150 10.781, 174.825 10.146, 174 10.126 C 173.175 10.106, 171.150 10.708, 169.500 11.464 M 153.555 19.500 C 149.212 21.975, 144.498 24.026, 143.079 24.058 C 141.661 24.089, 138.700 24.511, 136.500 24.996 C 133.384 25.681, 134.002 25.752, 139.292 25.317 C 144.869 24.858, 147.432 23.989, 153.630 20.457 C 160.810 16.366, 162.878 15, 161.892 15 C 161.650 15, 157.898 17.025, 153.555 19.500 M 187 30.958 C 169.882 32.776, 153.209 43.437, 147.056 56.500 C 141.142 69.056, 141.537 60.276, 141.228 185.967 C 140.982 285.656, 141.149 302.428, 142.448 308.711 C 144.270 317.519, 146.872 322.873, 151.033 326.374 C 154.485 329.279, 156.737 329.644, 159.362 327.725 C 160.990 326.534, 160.887 325.989, 157.803 319.475 L 154.500 312.500 154.233 192 C 153.974 74.457, 154.015 71.340, 155.943 64.979 C 158.009 58.158, 163.938 48.722, 167.703 46.259 L 169.906 44.818 167.830 49.116 C 164.651 55.695, 164.092 67.708, 164.044 130.364 L 164 187.227 168.750 182.174 C 182.676 167.357, 200.797 170.662, 213.742 190.381 C 217.529 196.149, 223.138 210.291, 226.086 221.500 C 228.786 231.769, 229.790 255.159, 228.044 267.133 C 224.324 292.653, 210.280 318.686, 198.500 321.898 C 182.368 326.297, 166.449 315.070, 165.869 298.886 C 165.632 292.258, 166.738 288.646, 172.701 276.563 L 178.161 265.500 177.772 251.500 C 177.343 236.074, 176.095 231.632, 168.193 217.414 L 164.500 210.769 164.240 257.126 C 163.992 301.310, 164.074 303.763, 165.991 309.440 C 168.599 317.161, 172.316 322.433, 177.825 326.224 C 186.694 332.325, 177.096 332.001, 348.409 331.991 L 505.500 331.981 510.629 329.040 C 513.708 327.273, 517.305 323.991, 519.629 320.825 L 523.500 315.551 523.813 192.026 C 524.042 101.665, 523.814 66.680, 522.967 61.720 C 520.821 49.168, 510.654 38.124, 496.216 32.662 L 490.500 30.500 342 30.384 C 260.325 30.320, 190.575 30.579, 187 30.958 M 92.500 32.510 C 91.950 32.704, 88.125 33.410, 84 34.080 C 79.875 34.750, 77.011 35.476, 77.636 35.694 C 78.892 36.133, 98.125 33.208, 98.867 32.466 C 99.397 31.936, 94.024 31.973, 92.500 32.510 M 68.492 38.610 C 60.303 42.891, 59.876 44.445, 68 40.397 C 76.684 36.071, 76.796 36, 74.909 36 C 74.125 36, 71.238 37.174, 68.492 38.610 M 54.493 49.250 C 49.924 54.552, 46.347 60.583, 45.449 64.500 C 45.071 66.150, 46.453 64.175, 48.519 60.112 C 50.586 56.048, 54.015 50.985, 56.138 48.862 C 58.262 46.738, 59.585 45, 59.078 45 C 58.571 45, 56.508 46.913, 54.493 49.250 M 127.875 48.458 C 127.623 48.710, 118.886 50.309, 108.459 52.011 C 98.031 53.714, 86.697 55.805, 83.271 56.659 C 74.984 58.723, 68.857 64.006, 66.324 71.270 C 64.574 76.288, 64.500 89.037, 64.500 385.500 L 64.500 694.500 66.804 700.202 C 69.644 707.231, 76.641 715.179, 83.403 719.058 C 91.878 723.919, 95.200 722.443, 92.239 715.133 C 91.489 713.282, 91.087 711.216, 91.345 710.544 C 91.603 709.871, 90.497 708.544, 88.888 707.593 C 85.351 705.503, 78.446 696.579, 76.871 692.060 C 75.953 689.427, 76.001 688.613, 77.115 687.908 C 77.877 687.425, 86.487 687.024, 96.250 687.015 L 114 687 114.033 537.750 C 114.051 455.663, 114.465 385.395, 114.954 381.601 C 116.318 371.016, 121.386 361.730, 131.027 352.154 L 138.964 344.270 133.541 339.943 C 126.869 334.619, 122.029 328.373, 118.474 320.500 C 116.087 315.214, 115.656 312.603, 114.847 298.557 C 114.343 289.788, 114.066 236.238, 114.233 179.557 C 114.512 84.375, 114.670 76.102, 116.292 71.297 C 118.362 65.170, 122.393 60, 125.102 60 C 126.477 60, 127.734 58.397, 129.513 54.376 C 130.881 51.282, 132 48.582, 132 48.376 C 132 47.838, 128.423 47.910, 127.875 48.458 M 545.753 163.750 C 545.892 214.212, 546.124 267.875, 546.269 283 C 546.414 298.125, 546.638 256.837, 546.766 191.250 C 546.895 125.662, 546.663 72, 546.250 72 C 545.837 72, 545.614 113.287, 545.753 163.750 M 42.482 180.500 C 42.482 237.150, 42.602 260.178, 42.750 231.674 C 42.897 203.169, 42.897 156.819, 42.750 128.674 C 42.602 100.528, 42.481 123.850, 42.482 180.500 M 249.270 119.054 C 237.834 121.311, 227.235 129.688, 222.417 140.278 C 219.951 145.697, 219.582 147.735, 219.554 156.074 C 219.524 165.008, 219.748 166.093, 222.913 172.330 C 230.480 187.237, 246.062 195.754, 260.788 193.031 C 284.036 188.734, 297.797 167.554, 291.391 145.932 C 287.206 131.804, 276.763 122.214, 262.201 119.124 C 256.286 117.869, 255.300 117.864, 249.270 119.054 M 438.962 118.873 C 429.176 120.929, 417.789 129.644, 413.538 138.332 C 403.988 157.851, 411.419 181.128, 430 189.903 C 434.779 192.159, 436.812 192.500, 445.500 192.500 C 454.397 192.500, 456.120 192.195, 461.126 189.736 C 468.068 186.325, 475.273 178.785, 478.820 171.218 C 481.167 166.211, 481.500 164.257, 481.500 155.500 C 481.500 143.646, 479.776 139.199, 471.798 130.469 C 463.498 121.388, 449.882 116.579, 438.962 118.873 M 249.256 133.588 C 242.567 137.002, 240.064 145.473, 244.079 151.111 C 250.284 159.826, 264.715 158.443, 269.343 148.690 C 274.127 138.607, 260.093 128.056, 249.256 133.588 M 438.304 133.956 C 431.906 137.857, 429.663 144.478, 432.952 149.759 C 439.029 159.518, 452.443 159.255, 458.279 149.262 C 464.229 139.075, 449.021 127.421, 438.304 133.956 M 192.500 191.208 C 187.326 194.175, 186.721 198.974, 190.526 206.862 C 196.751 219.766, 201 237.956, 201 251.703 C 201 262.016, 197.952 277.597, 193.856 288.217 C 192.186 292.547, 191.072 296.744, 191.379 297.545 C 192.345 300.064, 195.953 299.249, 197.112 296.250 C 199.592 289.834, 205.231 270.974, 206.583 264.575 C 208.854 253.827, 210.872 252.640, 212.399 261.153 C 212.759 263.163, 213.688 265.050, 214.462 265.347 C 217.594 266.549, 218.500 239.946, 215.723 228.322 C 212.177 213.477, 206.302 199.692, 200.898 193.537 C 197.636 189.821, 195.804 189.313, 192.500 191.208 M 301.255 204.119 C 294.549 206.053, 292.339 215.492, 297 222.295 C 300.525 227.440, 315.876 237.302, 325.266 240.454 C 344.422 246.883, 364.927 245.565, 382.500 236.774 C 390.685 232.679, 402.517 224.087, 404.429 220.850 C 408.177 214.505, 405.330 206.254, 398.628 204.042 C 394.360 202.634, 391.176 203.795, 385.424 208.858 C 375.586 217.518, 363.128 222, 348.895 222 C 334.840 222, 324.922 218.062, 314 208.143 C 311.525 205.896, 308.974 204.044, 308.332 204.028 C 307.689 204.013, 306.564 203.816, 305.832 203.591 C 305.099 203.366, 303.040 203.604, 301.255 204.119 M 42.490 488.500 C 42.490 601.250, 42.607 647.227, 42.750 590.670 C 42.893 534.114, 42.893 441.864, 42.750 385.670 C 42.607 329.477, 42.490 375.750, 42.490 488.500 M 540.108 327.502 C 538.826 329.920, 534.959 334.603, 531.516 337.909 C 525.260 343.916, 525.257 343.922, 527.360 345.711 C 529.181 347.258, 529.287 347.269, 528.145 345.792 C 526.986 344.293, 527.486 343.437, 532.232 338.792 C 537.213 333.918, 543.784 324.451, 542.841 323.508 C 542.621 323.287, 541.391 325.085, 540.108 327.502 M 533.608 352.030 C 534.767 353.389, 536.904 356.292, 538.358 358.482 C 539.811 360.672, 541 362.103, 541 361.662 C 541 360.396, 535.362 352.533, 533.334 350.973 C 531.936 349.896, 532.001 350.147, 533.608 352.030 M 190.718 355.082 C 181.144 357.360, 173.252 363.712, 168.828 372.697 C 165 380.473, 165.193 377.372, 164.704 438.849 C 164.348 483.492, 163.901 481.252, 170.735 469.106 C 176.637 458.618, 177.222 455.996, 177.067 440.738 C 176.918 426.045, 176.142 422.365, 169.112 403 C 164.340 389.854, 165.206 384.072, 173.251 375.343 C 181.202 366.718, 191.248 363.450, 200.067 366.621 C 212.776 371.191, 224.666 393.309, 228.990 420.425 C 230.437 429.497, 230.122 450.177, 228.366 461.500 C 224.190 488.411, 210.913 512.883, 196.500 520.234 C 187.804 524.668, 177.156 522.324, 169.305 514.246 L 164.947 509.762 165.224 597.631 L 165.500 685.500 167.740 691.032 C 170.643 698.200, 176.677 704.032, 185.500 708.196 L 192.500 711.500 341.500 711.500 L 490.500 711.500 497.125 709.210 C 500.769 707.950, 506.306 705.381, 509.430 703.500 C 514.702 700.325, 515.060 700.238, 514.426 702.290 C 512.097 709.827, 507.659 715.544, 501.750 718.620 C 500.238 719.407, 499 720.490, 499 721.026 C 499 722.380, 499.371 722.293, 504.219 719.793 C 509.917 716.856, 518.164 708.338, 521.116 702.343 L 523.500 697.500 524 542.500 C 524.275 457.250, 524.179 384.676, 523.786 381.225 C 522.447 369.463, 517.182 361.895, 507 357.093 L 501.500 354.500 348 354.341 C 259.869 354.250, 192.889 354.565, 190.718 355.082 M 150.899 360.101 C 146.138 364.862, 143.619 370.092, 142.037 378.500 C 141.221 382.836, 140.990 426.656, 141.204 536.500 L 141.500 688.500 143.929 695.500 C 146.011 701.500, 147.383 703.507, 153.536 709.551 C 161.945 717.811, 171.889 723.445, 181.743 725.533 C 187.440 726.741, 212.021 726.958, 338.500 726.919 C 443.576 726.887, 487.751 726.561, 486 725.830 C 484.381 725.155, 475.305 724.970, 460.250 725.306 C 445.932 725.625, 437 725.461, 437 724.878 C 437 724.286, 405.291 724.153, 352.250 724.523 C 275.393 725.058, 201.557 724.131, 193.500 722.528 C 186.092 721.055, 180.055 718.814, 174.500 715.473 C 167.092 711.019, 163.840 707.968, 159.444 701.347 C 152.721 691.222, 153.031 699.261, 153.015 534.934 C 153.005 432.289, 153.336 384.533, 154.086 380.434 C 155.084 374.980, 157.573 368.852, 161.048 363.292 C 162.285 361.314, 162.180 360.821, 160.040 358.542 C 158.726 357.144, 157.055 356, 156.326 356 C 155.597 356, 153.155 357.845, 150.899 360.101 M 543.544 369.646 C 543.833 370.826, 544.454 373.751, 544.925 376.146 C 545.757 380.380, 545.783 380.403, 545.845 377 C 545.881 375.075, 545.260 372.150, 544.465 370.500 C 543.657 368.823, 543.251 368.447, 543.544 369.646 M 546.465 432 C 546.465 460.325, 546.593 471.913, 546.749 457.750 C 546.906 443.588, 546.906 420.413, 546.749 406.250 C 546.593 392.088, 546.465 403.675, 546.465 432 M 193.747 383.984 C 189.430 387.380, 189.510 390.017, 194.368 404.351 C 200.166 421.460, 201.382 429.519, 200.759 446.703 C 200.202 462.078, 197.944 472.157, 192.738 482.500 C 187.478 492.949, 187.410 497, 192.492 497 C 194.694 497, 195.289 495.769, 199.943 481.578 C 202.724 473.096, 205 465.607, 205 464.936 C 205 464.265, 205.919 460.630, 207.042 456.858 C 209.400 448.943, 212 447.401, 212 453.918 C 212 458.664, 212.803 461, 214.433 461 C 215.863 461, 219.040 444.067, 219.016 436.578 C 218.982 426.135, 212.918 401.640, 207.961 391.923 C 205.030 386.178, 201.066 382, 198.546 382 C 197.294 382, 195.135 382.893, 193.747 383.984 M 545.474 555.500 C 545.474 594.550, 545.598 610.671, 545.750 591.323 C 545.901 571.976, 545.901 540.026, 545.750 520.323 C 545.598 500.621, 545.474 516.450, 545.474 555.500 M 546.444 661 C 546.444 677.775, 546.581 684.638, 546.748 676.250 C 546.915 667.862, 546.915 654.138, 546.748 645.750 C 546.581 637.362, 546.444 644.225, 546.444 661 M 44.045 700.205 C 43.960 703.426, 48.850 715.264, 52.378 720.379 C 54.320 723.196, 58.067 727.611, 60.705 730.190 C 65.375 734.758, 76.316 742.027, 78.441 741.973 C 79.024 741.959, 76.800 740.496, 73.500 738.723 C 66.491 734.958, 55.493 724.404, 51.529 717.639 C 50.004 715.037, 47.706 709.666, 46.423 705.704 C 45.139 701.742, 44.069 699.267, 44.045 700.205 M 537.078 717.182 C 535.306 720.032, 534.596 721.750, 535.501 720.999 C 537.044 719.719, 541.477 712, 540.670 712 C 540.466 712, 538.849 714.332, 537.078 717.182 M 492.732 723 C 490.871 725.174, 491.976 725.618, 495.094 723.950 C 496.173 723.372, 496.792 722.472, 496.469 721.950 C 495.585 720.520, 494.624 720.790, 492.732 723 M 526.843 729.437 C 519.080 736.864, 513.444 740.372, 503.033 744.252 C 498.890 745.797, 496.756 746.809, 498.291 746.501 C 508.371 744.480, 520.319 737.516, 528.966 728.622 C 536.296 721.082, 535.090 721.545, 526.843 729.437 M 95.420 746.405 L 100.340 747.573 95.396 750.746 C 92.677 752.490, 89.113 755.375, 87.476 757.155 C 84.919 759.937, 85.204 759.818, 89.506 756.307 C 92.259 754.060, 96.508 751.182, 98.947 749.911 L 103.381 747.599 100.441 746.345 C 98.823 745.655, 95.925 745.123, 94 745.164 C 90.729 745.233, 90.822 745.314, 95.420 746.405 M 491 747.447 C 491 747.692, 493.481 749.540, 496.512 751.552 C 502.806 755.729, 507.904 761.277, 512.086 768.500 C 513.678 771.250, 514.985 773.007, 514.991 772.405 C 514.996 771.803, 513.276 768.653, 511.170 765.405 C 507.655 759.986, 505.352 757.602, 496.052 749.750 C 493.087 747.247, 491 746.295, 491 747.447 M 175.500 750.019 C 184.974 757.314, 191.935 765.794, 195.110 773.908 C 196.098 776.433, 196.923 777.825, 196.943 777 C 197.030 773.479, 191.736 764.758, 185.497 758.144 C 178.675 750.912, 178.615 750.575, 184 749.685 C 185.420 749.451, 184.556 749.208, 182 749.123 C 179.525 749.040, 176.375 748.688, 175 748.341 C 172.602 747.735, 172.623 747.803, 175.500 750.019 M 223.685 749.748 C 233.138 749.912, 248.888 749.913, 258.685 749.749 C 268.483 749.585, 260.750 749.451, 241.500 749.450 C 222.250 749.450, 214.233 749.584, 223.685 749.748 M 292.302 749.746 C 297.693 749.926, 306.243 749.925, 311.302 749.744 C 316.361 749.563, 311.950 749.416, 301.500 749.417 C 291.050 749.418, 286.911 749.566, 292.302 749.746 M 407 749.912 L 404.500 750.624 407.355 751.357 C 409.481 751.904, 410.087 752.560, 409.729 753.930 C 409.311 755.528, 409.806 755.424, 413.515 753.134 C 415.861 751.685, 417.579 750.163, 417.332 749.750 C 416.783 748.835, 410.429 748.935, 407 749.912 M 113 765.481 C 113 766.295, 115.066 768.012, 117.592 769.295 L 122.183 771.629 119.578 774.725 C 115.184 779.947, 114 784.133, 114 794.452 L 114 803.969 142.250 804.234 L 170.500 804.500 170.500 809.500 L 170.500 814.500 148.426 814.769 L 126.352 815.037 126.789 818.019 L 127.227 821 153.613 821 L 180 821 180 802.361 C 180 783.745, 179.996 783.715, 177.217 779.111 C 175.687 776.575, 173.573 772.543, 172.521 770.150 C 171.386 767.573, 169.641 765.434, 168.238 764.900 C 166.936 764.405, 153.974 764, 139.435 764 C 116.756 764, 113 764.210, 113 765.481 M 432 764.916 C 432 765.667, 434.517 767.754, 438.767 770.527 C 438.914 770.622, 437.452 773.329, 435.517 776.542 C 432.072 782.262, 432 782.604, 432 793.176 L 432 803.969 460.250 804.234 L 488.500 804.500 488.802 809.750 L 489.105 815 466.159 815 C 446.686 815, 443.127 815.227, 442.638 816.500 C 442.322 817.325, 442.322 818.675, 442.638 819.500 C 443.131 820.784, 447.236 821, 471.107 821 L 499 821 499 803.750 L 499 786.500 494.928 778 C 492.688 773.325, 490.309 768.375, 489.640 767 L 488.424 764.500 460.212 764.234 C 442.926 764.072, 432 764.336, 432 764.916 M 76.618 776.210 C 76.269 777.470, 75.693 782.775, 75.340 788 C 74.986 793.225, 74.202 797.862, 73.598 798.304 C 72.943 798.783, 73.307 798.973, 74.500 798.775 C 76.262 798.482, 76.463 797.792, 76.187 792.971 C 76.015 789.962, 76.341 784.601, 76.912 781.059 C 77.957 774.575, 77.799 771.959, 76.618 776.210 M 394.641 779.210 C 394.303 780.470, 394.021 784.292, 394.014 787.704 L 394 793.909 387.250 794.258 L 380.500 794.608 387.647 794.804 L 394.795 795 395.207 786.250 C 395.656 776.745, 395.574 775.727, 394.641 779.210 M 516.763 786.642 C 517.205 798.569, 517.337 799.036, 520.219 798.864 L 522.500 798.728 520.250 798.294 C 518.130 797.886, 517.996 797.361, 517.930 789.180 C 517.891 784.406, 517.531 779.664, 517.129 778.642 C 516.727 777.620, 516.563 781.220, 516.763 786.642 M 198.185 789.250 L 198 795 206.750 794.796 L 215.500 794.593 207.301 794.257 L 199.102 793.921 198.736 788.710 L 198.370 783.500 198.185 789.250 M 233 792.941 C 227.775 793.249, 246.900 793.362, 275.500 793.194 C 304.100 793.025, 328.175 792.740, 329 792.560 C 331.566 791.999, 243.039 792.351, 233 792.941 M 331.915 793.315 C 332.367 793.767, 334.483 793.984, 336.618 793.797 L 340.500 793.458 335.796 792.975 C 333.210 792.710, 331.463 792.863, 331.915 793.315 M 364 793.042 C 367.025 793.460, 371.750 793.781, 374.500 793.754 L 379.500 793.706 373.500 792.962 C 370.200 792.552, 365.475 792.232, 363 792.249 L 358.500 792.282 364 793.042 M 523.083 799.372 C 523.313 799.576, 527.325 799.990, 532 800.292 C 538.176 800.690, 539.270 800.608, 536 799.994 C 531.421 799.133, 522.325 798.695, 523.083 799.372 M 56.500 801.051 C 54.527 801.587, 55.555 801.674, 59.500 801.308 C 62.800 801.001, 65.688 800.581, 65.917 800.375 C 66.661 799.706, 59.585 800.214, 56.500 801.051 M 542.762 801.707 C 544.006 801.946, 545.806 801.937, 546.762 801.687 C 547.718 801.437, 546.700 801.241, 544.500 801.252 C 542.300 801.263, 541.518 801.468, 542.762 801.707 M 552.500 803.057 C 557.566 804.105, 561.659 804.058, 557.500 803 C 555.850 802.580, 553.150 802.235, 551.500 802.233 C 548.978 802.231, 549.137 802.362, 552.500 803.057 M 27.500 806.047 C 26.106 806.678, 26.712 806.768, 29.500 806.344 C 31.700 806.009, 33.688 805.569, 33.917 805.367 C 34.776 804.610, 29.420 805.177, 27.500 806.047 M 569 806 C 570.375 806.440, 572.400 806.814, 573.500 806.830 L 575.500 806.859 573.500 806 C 572.400 805.527, 570.375 805.154, 569 805.170 L 566.500 805.199 569 806 M 12.500 810.412 C 10.850 811.145, 8.375 813.040, 7 814.623 L 4.500 817.500 7.057 815.257 C 8.463 814.023, 11.388 812.129, 13.557 811.047 C 17.977 808.841, 17.151 808.345, 12.500 810.412 M 587.500 811.164 C 588.600 811.771, 590.646 813.220, 592.046 814.384 C 593.447 815.548, 593.116 815.038, 591.311 813.250 C 589.506 811.462, 587.460 810.014, 586.765 810.030 C 586.069 810.047, 586.400 810.557, 587.500 811.164 M 5 822.638 C 5 823.987, 9.987 827.568, 13.019 828.396 C 15.135 828.973, 15.059 828.829, 12.500 827.415 C 10.850 826.503, 8.488 824.833, 7.250 823.704 C 6.012 822.575, 5 822.095, 5 822.638 M 591 825.500 C 589.136 826.875, 587.110 828, 586.497 828 C 585.884 828, 584.509 828.689, 583.441 829.532 C 581.695 830.910, 581.882 830.913, 585.308 829.559 C 589.002 828.099, 595 824.307, 595 823.432 C 595 822.669, 594.454 822.951, 591 825.500 M 20.531 830.845 C 21.442 831.675, 29.935 834.046, 31.693 833.961 C 32.137 833.939, 31.150 833.339, 29.500 832.626 C 25.609 830.945, 19.257 829.684, 20.531 830.845 M 578.500 830.713 C 577.400 830.978, 576.050 831.651, 575.500 832.209 C 574.250 833.479, 579.048 832.197, 580.450 830.888 C 580.972 830.399, 581.197 830.052, 580.950 830.116 C 580.702 830.180, 579.600 830.448, 578.500 830.713 M 34 834.083 C 34 834.971, 42.818 836.515, 43.575 835.759 C 43.840 835.493, 41.794 834.829, 39.029 834.282 C 36.263 833.735, 34 833.645, 34 834.083 M 45.500 835.716 C 46.594 836.822, 64.728 839.606, 65.541 838.793 C 65.817 838.516, 61.881 837.721, 56.793 837.026 C 51.705 836.331, 46.858 835.524, 46.021 835.234 C 45.002 834.880, 44.830 835.039, 45.500 835.716 M 556.500 836 L 553.500 836.763 556.750 836.882 C 558.538 836.947, 560 836.550, 560 836 C 560 835.450, 559.888 835.053, 559.750 835.118 C 559.612 835.183, 558.150 835.580, 556.500 836 M 545 838 C 542.569 838.778, 542.583 838.801, 545.500 838.801 C 547.150 838.801, 549.625 838.440, 551 838 C 553.431 837.222, 553.417 837.199, 550.500 837.199 C 548.850 837.199, 546.375 837.560, 545 838 M 530.500 840 L 527.500 840.763 531 840.824 C 532.925 840.857, 536.300 840.512, 538.500 840.057 L 542.500 839.230 538 839.233 C 535.525 839.235, 532.150 839.580, 530.500 840 M 75.762 840.707 C 77.006 840.946, 78.806 840.937, 79.762 840.687 C 80.718 840.437, 79.700 840.241, 77.500 840.252 C 75.300 840.263, 74.518 840.468, 75.762 840.707 M 84.750 841.706 C 85.987 841.944, 88.013 841.944, 89.250 841.706 C 90.487 841.467, 89.475 841.272, 87 841.272 C 84.525 841.272, 83.513 841.467, 84.750 841.706 M 514 842 L 510.500 842.737 514.500 842.811 C 516.700 842.851, 520.300 842.512, 522.500 842.057 L 526.500 841.230 522 841.247 C 519.525 841.256, 515.925 841.595, 514 842 M 93.762 842.707 C 95.006 842.946, 96.806 842.937, 97.762 842.687 C 98.718 842.437, 97.700 842.241, 95.500 842.252 C 93.300 842.263, 92.518 842.468, 93.762 842.707 M 501.694 843.189 C 497.951 843.637, 487.151 844.421, 477.694 844.931 L 460.500 845.859 480 845.305 C 500.586 844.720, 511.160 843.871, 509.500 842.937 C 508.950 842.628, 505.437 842.741, 501.694 843.189 M 102.728 843.722 C 104.503 843.943, 107.653 843.946, 109.728 843.730 C 111.802 843.513, 110.350 843.333, 106.500 843.328 C 102.650 843.324, 100.952 843.501, 102.728 843.722 M 118.750 844.732 C 121.087 844.943, 124.912 844.943, 127.250 844.732 C 129.588 844.522, 127.675 844.349, 123 844.349 C 118.325 844.349, 116.412 844.522, 118.750 844.732 M 140.500 846.053 C 145.450 846.457, 157.150 846.759, 166.500 846.724 C 183.104 846.661, 183.244 846.643, 172.500 845.957 C 166.450 845.571, 154.750 845.268, 146.500 845.286 C 132.480 845.315, 132.088 845.365, 140.500 846.053 M 428 846.047 C 422.021 846.455, 425.554 846.683, 439.917 846.814 C 451.146 846.916, 460.146 846.836, 459.917 846.635 C 459.081 845.903, 436.271 845.483, 428 846.047 M 252.250 847.750 C 282.913 847.897, 333.087 847.897, 363.750 847.750 C 394.413 847.603, 369.325 847.483, 308 847.483 C 246.675 847.483, 221.587 847.603, 252.250 847.750" stroke="none" fill="#f1f7f9" fill-rule="evenodd"/></svg>