<?xml version="1.0" standalone="no"?>
<!DOCTYPE svg PUBLIC "-//W3C//DTD SVG 20010904//EN"
 "http://www.w3.org/TR/2001/REC-SVG-20010904/DTD/svg10.dtd">
<svg version="1.0" xmlns="http://www.w3.org/2000/svg"
 width="612.000000pt" height="612.000000pt" viewBox="0 0 612.000000 612.000000"
 preserveAspectRatio="xMidYMid meet">

<g transform="translate(0.000000,612.000000) scale(0.100000,-0.100000)"
fill="#000000" stroke="none">
<path d="M4040 4609 c-64 -28 -550 -513 -550 -548 0 -37 538 -571 575 -571 22
0 75 49 275 249 137 137 256 264 266 282 9 18 19 61 22 96 8 108 -8 135 -192
319 -136 136 -169 164 -210 178 -66 21 -131 20 -186 -5z m164 -94 c42 -20 302
-282 315 -318 6 -16 11 -48 11 -71 0 -51 -21 -81 -145 -203 l-83 -82 -223 225
c-123 124 -226 227 -228 230 -7 7 178 192 214 215 36 23 95 24 139 4z m-51
-825 c-45 -44 -86 -80 -90 -80 -4 0 -109 101 -233 225 l-225 225 85 85 85 85
230 -230 230 -230 -82 -80z"/>
<path d="M2518 3112 c-472 -471 -860 -860 -863 -863 -10 -11 -166 -701 -163
-721 7 -47 21 -45 380 37 188 43 351 81 360 84 10 4 405 393 878 866 738 737
860 863 860 887 0 33 -33 51 -65 36 -11 -5 -393 -383 -850 -839 l-830 -828
-228 227 -227 228 835 834 c459 459 838 842 841 852 9 28 -14 58 -44 58 -22 0
-170 -143 -884 -858z m-588 -1187 c107 -107 192 -196 190 -199 -7 -6 -318 -76
-338 -76 -10 0 -45 28 -79 63 l-62 62 18 75 c10 41 29 119 41 173 12 53 25 97
28 97 4 0 95 -88 202 -195z"/>
</g>
</svg>
