<?xml version="1.0" standalone="no"?>
<!DOCTYPE svg PUBLIC "-//W3C//DTD SVG 20010904//EN"
 "http://www.w3.org/TR/2001/REC-SVG-20010904/DTD/svg10.dtd">
<svg version="1.0" xmlns="http://www.w3.org/2000/svg"
 width="474.000000pt" height="474.000000pt" viewBox="0 0 474.000000 474.000000"
 preserveAspectRatio="xMidYMid meet">

<g transform="translate(0.000000,474.000000) scale(0.100000,-0.100000)"
fill="#000000" stroke="none">
<path d="M615 4730 c-5 -6 -25 -22 -43 -36 -18 -15 -42 -44 -53 -66 -19 -38
-20 -55 -17 -321 3 -276 4 -283 28 -342 14 -33 51 -94 81 -135 140 -189 205
-355 229 -581 13 -135 14 -2312 0 -2432 -17 -151 -80 -272 -233 -452 -90 -105
-112 -154 -103 -220 7 -43 38 -85 99 -132 21 -17 3527 -19 3527 -3 0 6 6 10
13 10 20 0 64 50 81 92 32 76 12 134 -79 237 -80 90 -130 160 -175 244 -79
148 -74 52 -78 1357 -3 1215 0 1330 39 1484 27 109 113 283 186 381 116 154
123 183 123 516 0 285 -5 309 -71 362 -19 15 -39 32 -46 37 -16 13 -3494 13
-3508 0z m2013 -1737 c41 -38 176 -157 301 -266 124 -109 227 -202 229 -207 2
-4 -27 -18 -63 -30 -66 -22 -97 -53 -88 -90 3 -11 -14 -21 -61 -37 -62 -20
-64 -20 -80 -2 -31 36 -56 32 -271 -40 -115 -39 -210 -69 -212 -67 -4 3 141
748 153 789 3 9 8 17 11 17 3 0 39 -30 81 -67z m-785 -630 c2 -10 37 -128 77
-263 136 -460 149 -504 145 -508 -2 -2 -86 17 -187 42 -100 25 -262 63 -358
86 -233 54 -252 60 -248 70 3 9 71 82 308 330 91 96 184 194 204 218 42 46 51
50 59 25z m950 -595 c84 -73 197 -173 252 -223 55 -49 167 -148 248 -218 81
-70 147 -132 147 -136 0 -4 -186 -70 -412 -146 -227 -76 -456 -153 -508 -171
-52 -18 -95 -32 -96 -31 -3 4 209 1057 213 1057 2 0 72 -60 156 -132z m-749
-693 c-24 -90 -20 -137 12 -149 17 -6 17 -19 4 -67 -8 -29 -16 -38 -40 -42
-16 -4 -37 -18 -46 -32 -9 -14 -38 -107 -65 -208 -27 -100 -51 -189 -54 -196
-4 -10 -99 79 -295 274 -160 160 -290 293 -290 296 0 4 35 16 78 27 42 11 156
41 252 66 96 25 231 61 300 80 69 19 134 35 146 35 l21 1 -23 -85z m1416 -568
c0 -101 -3 -225 -6 -275 l-7 -92 -278 0 -278 0 -95 58 c-53 31 -96 60 -96 63
0 4 48 34 108 67 160 89 340 190 497 280 77 44 143 81 148 81 4 1 7 -82 7
-182z"/>
<path d="M2616 2781 c-25 -27 -17 -72 15 -90 24 -13 29 -13 53 2 34 22 36 69
4 91 -30 21 -51 20 -72 -3z"/>
<path d="M2826 2607 c-21 -16 -24 -60 -6 -82 17 -21 63 -19 83 3 47 52 -21
120 -77 79z"/>
<path d="M2570 2557 c-49 -25 -30 -107 26 -107 52 0 75 74 32 104 -27 19 -26
19 -58 3z"/>
<path d="M1706 2094 c-9 -8 -16 -26 -16 -39 0 -13 7 -31 16 -39 8 -9 26 -16
39 -16 13 0 31 7 39 16 9 8 16 26 16 39 0 13 -7 31 -16 39 -8 9 -26 16 -39 16
-13 0 -31 -7 -39 -16z"/>
<path d="M1540 1920 c-11 -11 -20 -27 -20 -35 0 -18 44 -65 60 -65 16 0 60 46
60 63 0 21 -38 57 -60 57 -11 0 -29 -9 -40 -20z"/>
<path d="M1797 1832 c-46 -50 13 -114 74 -82 13 7 19 21 19 45 0 52 -59 75
-93 37z"/>
<path d="M2715 1460 c-35 -39 7 -99 60 -86 32 8 48 57 29 85 -19 27 -65 28
-89 1z"/>
<path d="M2972 1354 c-32 -22 -30 -69 4 -91 24 -15 29 -15 53 -2 36 20 41 71
9 93 -28 20 -38 20 -66 0z"/>
<path d="M2722 1228 c-29 -29 -1 -98 39 -98 48 0 76 62 43 94 -18 19 -65 21
-82 4z"/>
<path d="M1756 968 c-21 -29 -20 -51 2 -71 22 -20 65 -22 79 -4 21 26 22 58 2
78 -26 26 -64 24 -83 -3z"/>
<path d="M1533 864 c-15 -24 -15 -29 -2 -53 11 -20 22 -26 49 -26 27 0 38 6
49 26 13 24 13 29 -2 53 -12 18 -26 26 -47 26 -21 0 -35 -8 -47 -26z"/>
<path d="M1750 700 c-11 -11 -20 -29 -20 -40 0 -25 34 -60 58 -60 46 0 69 72
34 103 -25 22 -48 21 -72 -3z"/>
<path d="M3273 365 c-25 -17 -29 -45 -13 -76 12 -22 68 -27 88 -7 13 13 16 57
4 75 -13 20 -56 25 -79 8z"/>
<path d="M3040 280 c-11 -11 -20 -29 -20 -39 0 -19 43 -61 62 -61 15 0 58 48
58 65 0 21 -36 55 -60 55 -11 0 -29 -9 -40 -20z"/>
</g>
</svg>
