<?xml version="1.0" encoding="UTF-8"?>
<svg version="1.1" xmlns="http://www.w3.org/2000/svg" width="64" height="64">
<path d="M0 0 C7.92 0 15.84 0 24 0 C24 1.32 24 2.64 24 4 C23.34 4 22.68 4 22 4 C22 22.48 22 40.96 22 60 C5.5 60 -11 60 -28 60 C-27.67 57.36 -27.34 54.72 -27 52 C-26.91478873 49.79286723 -26.8694938 47.58377584 -26.8671875 45.375 C-26.86589844 44.17359375 -26.86460938 42.9721875 -26.86328125 41.734375 C-26.86908203 39.88585938 -26.86908203 39.88585938 -26.875 38 C-26.87113281 36.76765625 -26.86726563 35.5353125 -26.86328125 34.265625 C-26.86457031 33.06421875 -26.86585937 31.8628125 -26.8671875 30.625 C-26.86831543 29.54476563 -26.86944336 28.46453125 -26.87060547 27.3515625 C-27.01730154 23.55185746 -27.52835349 19.7731721 -28 16 C-18.1 16 -8.2 16 2 16 C2 12.04 2 8.08 2 4 C1.34 4 0.68 4 0 4 C0 2.68 0 1.36 0 0 Z " fill="#F9A01A" transform="translate(34,2)"/>
<path d="M0 0 C7.92 0 15.84 0 24 0 C24 1.32 24 2.64 24 4 C23.34 4 22.68 4 22 4 C22 22.48 22 40.96 22 60 C17.05 60 12.1 60 7 60 C7 58.35 7 56.7 7 55 C6.67 54.67 6.34 54.34 6 54 C5.89961125 51.69446821 5.86918429 49.38584048 5.8671875 47.078125 C5.86623077 46.38112488 5.86527405 45.68412476 5.86428833 44.96600342 C5.86360632 43.48644928 5.86546207 42.00689218 5.86962891 40.52734375 C5.87494489 38.27336793 5.86970141 36.01959432 5.86328125 33.765625 C5.86394266 32.32812456 5.86522511 30.89062425 5.8671875 29.453125 C5.86831543 28.14504883 5.86944336 26.83697266 5.87060547 25.48925781 C5.98091281 22.51470579 6.30291985 19.88384896 7 17 C5.35 16.67 3.7 16.34 2 16 C2 12.04 2 8.08 2 4 C1.34 4 0.68 4 0 4 C0 2.68 0 1.36 0 0 Z " fill="#5FAA46" transform="translate(34,2)"/>
<path d="M0 0 C11.55 0 23.1 0 35 0 C35.495 2.475 35.495 2.475 36 5 C35.67 5.33 35.34 5.66 35 6 C34.84028023 8.37338639 34.7407567 10.72118272 34.68359375 13.09765625 C34.66281265 13.80651474 34.64203156 14.51537323 34.62062073 15.24571228 C34.55505402 17.51787305 34.4962077 19.79015264 34.4375 22.0625 C34.39432151 23.59962183 34.35070745 25.1367315 34.30664062 26.67382812 C34.19936551 30.4490959 34.09811863 34.2244836 34 38 C30.13240319 34.69447608 30.13240319 34.69447608 29.54589844 31.61816406 C29.57731934 30.32990723 29.57731934 30.32990723 29.609375 29.015625 C29.62871094 27.61376953 29.62871094 27.61376953 29.6484375 26.18359375 C29.68195312 25.21550781 29.71546875 24.24742188 29.75 23.25 C29.76804687 22.26644531 29.78609375 21.28289063 29.8046875 20.26953125 C29.85175874 17.84536217 29.91749258 15.42317941 30 13 C23.60741972 13.95016268 18.99442606 15.12719981 13.75 19.125 C9.57796957 22.29348797 7.28212333 23.4844551 2 23 C1.93941406 22.01 1.87882813 21.02 1.81640625 20 C1.73189869 18.66665856 1.647256 17.33332567 1.5625 16 C1.44344076 14.09505208 1.32438151 12.19010417 1.20532227 10.28515625 C0.89641673 6.84715882 0.42814895 3.42519159 0 0 Z " fill="#F9A01A" transform="translate(6,18)"/>
<path d="M0 0 C0 2.64 0 5.28 0 8 C-1.670625 8.2784375 -1.670625 8.2784375 -3.375 8.5625 C-8.30815111 9.76055098 -11.87225469 12.44358283 -15.8984375 15.44140625 C-20.05505993 18.52410579 -22.92562749 18.08184472 -28 18 C-28 15.36 -28 12.72 -28 10 C-26.329375 9.7215625 -26.329375 9.7215625 -24.625 9.4375 C-19.69184889 8.23944902 -16.12774531 5.55641717 -12.1015625 2.55859375 C-7.94494007 -0.52410579 -5.07437251 -0.08184472 0 0 Z " fill="#D7E4EA" transform="translate(36,31)"/>
<path d="M0 0 C3.36996335 2.49084248 4.81810427 3.88588865 5.5 8.0625 C4.92701746 11.42877241 4.6192182 12.79003464 2 15 C-0.66899746 15.76177636 -3.22542207 16.16781721 -6 16 C-6.99 15.34 -7.98 14.68 -9 14 C-9.34187602 10.15389476 -8.83289515 6.74802819 -8 3 C-8 2.34 -8 1.68 -8 1 C-5.11138291 -0.44430855 -3.20352299 -0.37688506 0 0 Z " fill="#A1C1D5" transform="translate(49,16)"/>
<path d="M0 0 C1.98 0.66 3.96 1.32 6 2 C6 11.57 6 21.14 6 31 C4.35 31.33 2.7 31.66 1 32 C1.020625 31.195625 1.04125 30.39125 1.0625 29.5625 C1.29633621 27.06645115 1.29633621 27.06645115 0 26 C-0.08748207 24.07332493 -0.10697334 22.14348139 -0.09765625 20.21484375 C-0.09443359 19.04501953 -0.09121094 17.87519531 -0.08789062 16.66992188 C-0.07951172 15.43822266 -0.07113281 14.20652344 -0.0625 12.9375 C-0.05798828 11.70193359 -0.05347656 10.46636719 -0.04882812 9.19335938 C-0.03699608 6.12885883 -0.02051173 3.06445279 0 0 Z " fill="#91C73C" transform="translate(40,30)"/>
<path d="M0 0 C11.88 0 23.76 0 36 0 C35.67 1.32 35.34 2.64 35 4 C23.45 4 11.9 4 0 4 C0 2.68 0 1.36 0 0 Z " fill="#EF6423" transform="translate(6,58)"/>
<path d="M0 0 C11.55 0 23.1 0 35 0 C35.495 1.98 35.495 1.98 36 4 C24.12 4 12.24 4 0 4 C0 2.68 0 1.36 0 0 Z " fill="#EF6423" transform="translate(6,18)"/>
<path d="M0 0 C0 10.23 0 20.46 0 31 C-4 27 -4 27 -4.50170898 24.39038086 C-4.49985596 23.42495361 -4.49800293 22.45952637 -4.49609375 21.46484375 C-4.49673828 20.40845703 -4.49738281 19.35207031 -4.49804688 18.26367188 C-4.47806641 17.16603516 -4.45808594 16.06839844 -4.4375 14.9375 C-4.44458984 13.83599609 -4.45167969 12.73449219 -4.45898438 11.59960938 C-4.39462388 3.49513818 -4.39462388 3.49513818 -2.53540039 1.16235352 C-1 0 -1 0 0 0 Z " fill="#F06422" transform="translate(40,25)"/>
<path d="M0 0 C7.92 0 15.84 0 24 0 C24 1.32 24 2.64 24 4 C16.08 4 8.16 4 0 4 C0 2.68 0 1.36 0 0 Z " fill="#A4C2DB" transform="translate(34,2)"/>
<path d="M0 0 C3.3 0 6.6 0 10 0 C10 2.64 10 5.28 10 8 C6.19956554 9.73734147 4.40285423 10 0 10 C0 6.7 0 3.4 0 0 Z " fill="#91C83C" transform="translate(36,8)"/>
<path d="M0 0 C0 5.28 0 10.56 0 16 C-5 15 -5 15 -6 14 C-6.17474361 10.15564068 -5.83246941 6.74611234 -5 3 C-5 2.34 -5 1.68 -5 1 C-3 0 -3 0 0 0 Z " fill="#D5E4EC" transform="translate(46,16)"/>
<path d="M0 0 C3.96 0 7.92 0 12 0 C12 1.32 12 2.64 12 4 C8.04 4 4.08 4 0 4 C0 2.68 0 1.36 0 0 Z " fill="#D6E5EF" transform="translate(34,2)"/>
</svg>
