<?xml version="1.0" standalone="no"?>
<!DOCTYPE svg PUBLIC "-//W3C//DTD SVG 20010904//EN"
 "http://www.w3.org/TR/2001/REC-SVG-20010904/DTD/svg10.dtd">
<svg version="1.0" xmlns="http://www.w3.org/2000/svg"
 width="64.000000pt" height="64.000000pt" viewBox="0 0 64.000000 64.000000"
 preserveAspectRatio="xMidYMid meet">

<g transform="translate(0.000000,64.000000) scale(0.100000,-0.100000)"
fill="#000000" stroke="none">
<path d="M72 448 c-7 -7 -12 -16 -12 -20 0 -4 81 -8 180 -8 99 0 180 4 180 8
0 4 -5 13 -12 20 -17 17 -319 17 -336 0z"/>
<path d="M379 373 c-10 -11 -14 -49 -14 -134 0 -99 3 -121 18 -136 16 -16 17
-10 17 135 0 84 -2 152 -4 152 -2 0 -10 -7 -17 -17z"/>
<path d="M60 52 c0 -27 30 -32 180 -32 150 0 180 5 180 32 0 4 -81 8 -180 8
-99 0 -180 -4 -180 -8z"/>
</g>
</svg>
